<svg version="1.1" xmlns="http://www.w3.org/2000/svg" xmlns:xlink="http://www.w3.org/1999/xlink" width="670.87518" height="385.74721" viewBox="0,0,670.87518,385.74721"><g transform="translate(178.38265,13.57627)"><g data-paper-data="{&quot;isPaintingLayer&quot;:true}" fill-rule="nonzero" stroke-linejoin="miter" stroke-miterlimit="10" stroke-dasharray="" stroke-dashoffset="0" style="mix-blend-mode: normal"><path d="M-174.7681,151.32058c-0.33556,0.16741 -0.71406,0.26158 -1.11455,0.26158c-1.38071,0 -2.5,-1.11929 -2.5,-2.5c0,-0.43345 0.11031,-0.84114 0.30439,-1.19652l2.28433,-4.39295l0.30604,0.15914c1.72073,-4.79465 3.93606,-9.44591 6.74755,-13.69381c4.5569,-6.88506 10.80813,-13.12229 16.06602,-19.49541c3.23777,-3.92452 6.47554,-7.84904 9.71332,-11.77356l-18.80945,30.43155c-0.99834,1.1509 -1.96076,2.32841 -2.80039,3.59701c-1.12151,1.69449 -1.961,3.58129 -2.79332,5.45297l-1.88275,3.04608l-0.49372,1.01187l-0.60122,0.95194l-3.96003,7.92005z" fill="#9966ff" stroke="none" stroke-width="0.5" stroke-linecap="butt"/><path d="M479.99253,-1.07627v359.26685l-480.46531,1.44284l-0.72142,-360.70969z" fill="none" stroke="#000000" stroke-width="25" stroke-linecap="round"/></g></g></svg>