<svg id="Layer_1" data-name="Layer 1" xmlns="http://www.w3.org/2000/svg" viewBox="0 0 216 432"><defs><style>.cls-1{fill:#fff;stroke:#fff;stroke-miterlimit:10;}.cls-2{fill:#e02228;}.cls-3{fill:#292928;}</style></defs><g id="inside1"><path class="cls-1" d="M108,188.33h0a20.68,20.68,0,0,0-7.68,1.5,20,20,0,0,0-10.65,10.6,19.06,19.06,0,0,0,0,15.15A20.55,20.55,0,0,0,94,222,19.84,19.84,0,0,0,108,227.68a19.47,19.47,0,0,0,7.62-1.5,20.4,20.4,0,0,0,6.44-4.23,21.52,21.52,0,0,0,4.27-6.37,19.76,19.76,0,0,0,0-15.15,21.23,21.23,0,0,0-4.27-6.32A19.89,19.89,0,0,0,108,188.33Z"/></g><g id="inside1-2" data-name="inside1"><path class="cls-2" d="M108,188.33h0a20.68,20.68,0,0,0-7.68,1.5,20,20,0,0,0-10.65,10.6,19.06,19.06,0,0,0,0,15.15A20.55,20.55,0,0,0,94,222,19.84,19.84,0,0,0,108,227.68a19.47,19.47,0,0,0,7.62-1.5,20.4,20.4,0,0,0,6.44-4.23,21.52,21.52,0,0,0,4.27-6.37,19.76,19.76,0,0,0,0-15.15,21.23,21.23,0,0,0-4.27-6.32A19.89,19.89,0,0,0,108,188.33Zm0,2.09h0a16.9,16.9,0,0,1,7,1.44,17.65,17.65,0,0,1,5.51,3.81L117,199.36l-8.87-8.94ZM121.17,220h0V208.19H119.6l5.3-5.3a8,8,0,0,1,.65,2.46,25.49,25.49,0,0,1,.16,2.9,15.18,15.18,0,0,1-.43,3.8,20.45,20.45,0,0,1-1.19,3.42,25.72,25.72,0,0,1-1.46,2.68,12.32,12.32,0,0,1-1.46,1.82ZM108,219.54h4v5.57a16.26,16.26,0,0,1-2.16.37,11.25,11.25,0,0,1-3.84,0,18.11,18.11,0,0,1-2.16-.37v-5.57ZM108,202h0l6,6.11h-1.84v6.05h-8.43v-6.05H102L108,202ZM94.83,220h0a9.38,9.38,0,0,1-1.4-1.82,17.89,17.89,0,0,1-1.52-2.68A16.43,16.43,0,0,1,90.78,212a14.73,14.73,0,0,1-.49-3.8,25.32,25.32,0,0,1,.16-2.89,13.2,13.2,0,0,1,.65-2.46l5.36,5.3H94.83V220Zm13.09-29.55h0l-8.87,8.94-3.68-3.69a19.12,19.12,0,0,1,5.52-3.81,17.07,17.07,0,0,1,7-1.44Z"/></g><polygon class="cls-3" points="136.55 234.77 136.55 234.77 134.43 234.77 134.43 232.75 136.55 232.75 136.55 234.77 136.55 234.77 136.55 234.77"/><polygon class="cls-3" points="143.98 234.77 143.98 234.77 141.85 234.77 141.85 232.75 143.98 232.75 143.98 234.77 143.98 234.77 143.98 234.77"/><polygon class="cls-3" points="28.07 243.45 28.07 243.45 25.3 243.45 24.3 237.87 24.25 237.87 23.3 243.45 20.52 243.45 18 234.3 20.78 234.3 21.91 239.97 21.95 239.97 23.04 234.3 25.56 234.3 26.64 240.01 26.68 240.01 27.86 234.3 30.64 234.3 28.07 243.45 28.07 243.45 28.07 243.45"/><polygon class="cls-3" points="31.59 234.3 31.59 234.3 34.46 234.3 34.46 243.45 31.59 243.45 31.59 234.3 31.59 234.3 31.59 234.3"/><polygon class="cls-3" points="35.94 234.3 35.94 234.3 38.84 234.3 41.54 239.2 41.58 239.2 41.58 234.3 44.27 234.3 44.27 243.45 41.49 243.45 38.63 238.47 38.63 238.47 38.63 243.45 35.94 243.45 35.94 234.3 35.94 234.3 35.94 234.3"/><path class="cls-3" d="M45.71,234.3H50.4c3.08,0,4.16,2.28,4.16,4.55,0,2.84-1.52,4.6-4.73,4.6H45.71V234.3Zm2.86,6.83h1.09c1.78,0,2-1.46,2-2.32a2,2,0,0,0-2.26-2.15h-.87v4.47Z"/><polygon class="cls-3" points="55.39 234.3 55.39 234.3 59.43 234.3 60.77 239.67 60.77 239.67 62.12 234.3 66.16 234.3 66.16 243.45 63.47 243.45 63.47 237.56 63.42 237.56 61.82 243.45 59.69 243.45 58.08 237.56 58.08 237.56 58.08 243.45 55.39 243.45 55.39 234.3 55.39 234.3 55.39 234.3"/><polygon class="cls-3" points="77.67 234.3 77.67 234.3 80.53 234.3 80.53 241.13 83.88 241.13 83.88 243.45 77.67 243.45 77.67 234.3 77.67 234.3 77.67 234.3"/><polygon class="cls-3" points="84.66 234.3 84.66 234.3 87.53 234.3 87.53 241.13 90.83 241.13 90.83 243.45 84.66 243.45 84.66 234.3 84.66 234.3 84.66 234.3"/><polygon class="cls-3" points="91.65 234.3 91.65 234.3 99.29 234.3 99.29 236.66 94.52 236.66 94.52 237.78 98.86 237.78 98.86 239.97 94.52 239.97 94.52 241.13 99.47 241.13 99.47 243.45 91.65 243.45 91.65 234.3 91.65 234.3 91.65 234.3"/><path class="cls-3" d="M117.92,242.81h0a4.11,4.11,0,0,1-2.65.86,3,3,0,0,1-3.17-3,3.2,3.2,0,0,1,2.09-2.58,2.45,2.45,0,0,1-.74-1.67,2.57,2.57,0,0,1,2.74-2.37c1.73,0,3,.73,3,2.37a2.88,2.88,0,0,1-1.73,2.36l.73.86a1.38,1.38,0,0,0,.35-.69h2.13a4.15,4.15,0,0,1-1.09,2.24l1.87,2.23h-3l-.52-.64Zm-2.43-3h0c-.39.21-.91.52-.91,1a.87.87,0,0,0,.87.86,1.57,1.57,0,0,0,1.08-.56l-1-1.29Zm.74-2.45h0a1.19,1.19,0,0,0,.74-.95.6.6,0,0,0-.65-.6.63.63,0,0,0-.66.6,1.57,1.57,0,0,0,.57.95Z"/><polygon class="cls-3" points="125 234.3 125 234.3 127.87 234.3 127.87 237.48 130.56 237.48 130.56 234.3 133.38 234.3 133.38 243.45 130.56 243.45 130.56 239.84 127.87 239.84 127.87 243.45 125 243.45 125 234.3 125 234.3 125 234.3"/><path class="cls-3" d="M154.53,240.36h0a1.19,1.19,0,0,0,.13.6,1.33,1.33,0,0,0,1.35.69c.47,0,1.17-.17,1.17-.86,0-.47-.39-.6-2-1-1.43-.43-3.12-.82-3.12-2.67,0-2.11,1.82-3,3.73-3s3.78.73,3.87,3H157a.67.67,0,0,0-.34-.73,1.44,1.44,0,0,0-.83-.22c-.39,0-1,.09-1,.6s1.39.82,2.69,1.16,2.61.95,2.61,2.67c0,2.36-2.22,3.14-4.26,3.14-1.09,0-4.08-.39-4.08-3.31Z"/><path class="cls-3" d="M167,237.69h0a1.54,1.54,0,0,0-1.52-1.33c-1.35,0-1.74,1.29-1.74,2.49s.39,2.54,1.74,2.54c.95,0,1.34-.69,1.52-1.55h2.78a4,4,0,0,1-4.22,3.83,4.49,4.49,0,0,1-4.69-4.82,4.44,4.44,0,0,1,4.69-4.77c2.57,0,4,1.33,4.17,3.61Z"/><polygon class="cls-3" points="170.99 234.3 170.99 234.3 173.85 234.3 173.85 237.48 176.5 237.48 176.5 234.3 179.37 234.3 179.37 243.45 176.5 243.45 176.5 239.84 173.85 239.84 173.85 243.45 170.99 243.45 170.99 234.3 170.99 234.3 170.99 234.3"/><polygon class="cls-3" points="180.5 234.3 180.5 234.3 188.14 234.3 188.14 236.66 183.32 236.66 183.32 237.78 187.71 237.78 187.71 239.97 183.32 239.97 183.32 241.13 188.27 241.13 188.27 243.45 180.5 243.45 180.5 234.3 180.5 234.3 180.5 234.3"/><path class="cls-3" d="M189.27,234.3h5.43c1.61,0,3,.9,3,2.62a2.34,2.34,0,0,1-1.39,2.28,2.58,2.58,0,0,1,1.39,2.28,6,6,0,0,0,.3,2h-2.87a7.61,7.61,0,0,1-.21-1.42c-.09-.85-.18-1.76-1.31-1.76h-1.52v3.18h-2.82V234.3Zm2.82,4h1.52c.53,0,1.26-.08,1.26-.9,0-.6-.34-.9-1.43-.9h-1.35v1.8Z"/><path class="cls-3" d="M100.34,234.3h5.42c1.65,0,3,.9,3,2.62a2.32,2.32,0,0,1-1.39,2.28,2.47,2.47,0,0,1,1.35,2.28,7.64,7.64,0,0,0,.3,2h-2.82A7.71,7.71,0,0,1,106,242c0-.85-.13-1.76-1.26-1.76H103.2v3.18h-2.86V234.3Zm2.86,4h1.48c.56,0,1.26-.08,1.26-.9,0-.6-.31-.9-1.39-.9H103.2v1.8Z"/><path class="cls-3" d="M139.2,234.08h0a4.8,4.8,0,1,1,0,9.59,4.8,4.8,0,1,1,0-9.59Zm0,7.53h0c1,0,2-.74,2-2.76s-1-2.62-2-2.62-2,.56-2,2.62,1,2.76,2,2.76Z"/><polygon class="cls-3" points="144.93 234.3 144.93 234.3 147.8 234.3 147.8 241.09 151.1 241.09 151.1 243.45 144.93 243.45 144.93 234.3 144.93 234.3 144.93 234.3"/><path class="cls-3" d="M72,234h0a4.82,4.82,0,1,1-4.91,4.81A4.67,4.67,0,0,1,72,234Zm0,7.57h0c1,0,2-.74,2-2.76s-1-2.62-2-2.62-2,.56-2,2.62,1,2.76,2,2.76Z"/><polygon class="cls-3" points="69.33 234.77 69.33 234.77 67.2 234.77 67.2 232.71 69.33 232.71 69.33 234.77 69.33 234.77 69.33 234.77"/><polygon class="cls-3" points="76.75 234.77 76.75 234.77 74.63 234.77 74.63 232.71 76.75 232.71 76.75 234.77 76.75 234.77 76.75 234.77"/></svg>